<?xml version="1.0" encoding="utf-8"?>
<!-- Generator: Adobe Illustrator 23.0.3, SVG Export Plug-In . SVG Version: 6.00 Build 0)  -->
<svg version="1.1" id="Warstwa_1" xmlns="http://www.w3.org/2000/svg" xmlns:xlink="http://www.w3.org/1999/xlink" x="0px" y="0px"
	 viewBox="0 0 330.6 275.5" style="enable-background:new 0 0 330.6 275.5;" xml:space="preserve">
<g>
	<g>
		<path fill='#fff' d="M329.9,104.7c-1.8,9.4-4,18.6-7.8,27.4c-7.6,17.5-18.4,32.9-30.9,47.1c-24.2,27.4-52.6,49.9-82.8,70.3
			c-11.5,7.8-23.5,14.9-35.4,22.1c-5.3,3.2-9.7,3.3-15.1,0.1c-33.3-19.6-64.9-41.7-93.5-67.8c-18.9-17.3-36.2-35.9-48.9-58.4
			C6.2,129.2-0.1,112,0.5,92.8c0.6-21.4,7.7-40.5,21.3-57C35.9,18.5,54.1,7.4,76.1,3.4c31.3-5.8,59,2.2,82.5,23.8
			c1.7,1.5,3.2,3.2,4.6,4.9c1.5,1.8,2.6,1.7,4.1,0c5.3-5.8,11.1-11,17.8-15.2c19.9-12.9,41.6-17.6,65-14.3
			c19.3,2.8,36.2,10.9,50.4,24.3c15.3,14.4,24.8,32,28.3,52.8c0.3,1.7,0.7,3.3,1,5C329.9,91.4,329.9,98.1,329.9,104.7z M96.7,19
			C79,19.1,65.1,23.1,52.5,31.3C22.2,51,9.4,89.8,23.9,123.9c8.3,19.5,20.9,35.9,35.4,50.9c30.5,31.8,66.1,57,103.6,79.7
			c2,1.2,3.5,1,5.3-0.1c7.5-4.8,15.2-9.3,22.6-14.1c32.9-21.4,63.8-45.2,89.7-75c11-12.7,20.5-26.4,26.7-42.1
			c6.8-17.1,7.5-34.3,1.8-51.8c-5.2-15.9-14.8-28.5-28.2-38.4c-22.8-16.9-57-18.8-81.4-4.4c-10,5.8-18.3,13.3-25,22.7
			c-5.8,8.1-11.9,8-17.9-0.1c-0.2-0.3-0.4-0.5-0.6-0.8C140.4,29.5,119.7,19.5,96.7,19z"/>
	</g>
</g>
</svg>
